<?xml version="1.0" encoding="UTF-8" standalone="no"?>
<svg
   xmlns:dc="http://purl.org/dc/elements/1.1/"
   xmlns:cc="http://creativecommons.org/ns#"
   xmlns:rdf="http://www.w3.org/1999/02/22-rdf-syntax-ns#"
   xmlns:svg="http://www.w3.org/2000/svg"
   xmlns="http://www.w3.org/2000/svg"
   xmlns:sodipodi="http://sodipodi.sourceforge.net/DTD/sodipodi-0.dtd"
   xmlns:inkscape="http://www.inkscape.org/namespaces/inkscape"
   class="svg-icon"
   style="overflow:hidden;fill:currentColor"
   viewBox="0 0 329.18375 306.0123"
   version="1.1"
   id="svg4672"
   sodipodi:docname="artificial-neural-network.svg"
   width="329.18375"
   height="306.0123"
   inkscape:version="0.92.5 (2060ec1f9f, 2020-04-08)">
  <metadata
     id="metadata4678">
    <rdf:RDF>
      <cc:Work
         rdf:about="">
        <dc:format>image/svg+xml</dc:format>
        <dc:type
           rdf:resource="http://purl.org/dc/dcmitype/StillImage" />
        <dc:title></dc:title>
      </cc:Work>
    </rdf:RDF>
  </metadata>
  <defs
     id="defs4676" />
  <sodipodi:namedview
     pagecolor="#ffffff"
     bordercolor="#666666"
     borderopacity="1"
     objecttolerance="10"
     gridtolerance="10"
     guidetolerance="10"
     inkscape:pageopacity="0"
     inkscape:pageshadow="2"
     inkscape:window-width="1109"
     inkscape:window-height="967"
     id="namedview4674"
     showgrid="false"
     fit-margin-top="0"
     fit-margin-left="0"
     fit-margin-right="0"
     fit-margin-bottom="0"
     inkscape:zoom="0.31738281"
     inkscape:cx="1158.2614"
     inkscape:cy="-296.67876"
     inkscape:window-x="1140"
     inkscape:window-y="322"
     inkscape:window-maximized="0"
     inkscape:current-layer="svg4672" />
  <g
     id="g4699"
     transform="matrix(0.32146851,0,0,0.32146851,0,-11.585725)">
    <path
       id="path4634"
       d="m 225.904,424.896 c -48.028,0 -87.104,39.076 -87.104,87.104 0,48.028 39.076,87.102 87.104,87.102 48.028,0 87.102,-39.074 87.102,-87.102 0,-48.028 -39.074,-87.104 -87.102,-87.104 z m 0,159.762 c -40.066,0 -72.66,-32.594 -72.66,-72.658 0,-40.066 32.594,-72.66 72.66,-72.66 40.064,0 72.658,32.594 72.658,72.66 0,40.064 -32.594,72.658 -72.658,72.658 z"
       inkscape:connector-curvature="0"
       style="fill:#4a555f" />
    <path
       id="path4636"
       d="m 225.904,456.194 c -30.772,0 -55.808,25.034 -55.808,55.806 0,30.772 25.036,55.808 55.808,55.808 30.772,0 55.806,-25.036 55.806,-55.808 0,-30.772 -25.034,-55.806 -55.806,-55.806 z"
       inkscape:connector-curvature="0"
       style="fill:#dfdfdf" />
    <path
       id="path4638"
       d="m 784.79,295.28 c -48.028,0 -87.104,39.074 -87.104,87.102 0,48.028 39.076,87.102 87.104,87.102 48.028,0 87.102,-39.074 87.102,-87.102 0,-48.028 -39.074,-87.102 -87.102,-87.102 z m 0,159.76 c -40.066,0 -72.66,-32.594 -72.66,-72.658 0,-40.064 32.594,-72.658 72.66,-72.658 40.064,0 72.658,32.594 72.658,72.658 0,40.064 -32.596,72.658 -72.658,72.658 z"
       inkscape:connector-curvature="0"
       style="fill:#4a555f" />
    <path
       id="path4640"
       d="m 784.788,326.576 c -30.772,0 -55.808,25.036 -55.808,55.808 0,30.772 25.036,55.806 55.808,55.806 30.772,0 55.806,-25.034 55.806,-55.806 0,-30.772 -25.034,-55.808 -55.806,-55.808 z"
       inkscape:connector-curvature="0"
       style="fill:#dfdfdf" />
    <path
       id="path4642"
       d="m 784.79,554.516 c -48.028,0 -87.104,39.074 -87.104,87.102 0,48.028 39.076,87.104 87.104,87.104 48.028,0 87.102,-39.076 87.102,-87.104 -0.002,-48.028 -39.074,-87.102 -87.102,-87.102 z m 0,159.762 c -40.066,0 -72.66,-32.594 -72.66,-72.66 0,-40.064 32.594,-72.658 72.66,-72.658 40.064,0 72.658,32.594 72.658,72.658 -0.002,40.066 -32.596,72.66 -72.658,72.66 z"
       inkscape:connector-curvature="0"
       style="fill:#4a555f" />
    <path
       id="path4644"
       d="m 784.788,585.812 c -30.772,0 -55.808,25.036 -55.808,55.808 0,30.772 25.036,55.806 55.808,55.806 30.772,0 55.806,-25.034 55.806,-55.806 0,-30.772 -25.034,-55.808 -55.806,-55.808 z"
       inkscape:connector-curvature="0"
       style="fill:#dfdfdf" />
    <path
       id="path4646"
       d="m 510.266,36.04 c -48.028,0 -87.102,39.076 -87.102,87.104 0,48.028 39.074,87.102 87.102,87.102 48.028,0 87.104,-39.074 87.104,-87.102 0,-48.028 -39.076,-87.104 -87.104,-87.104 z m 0,159.762 c -40.064,0 -72.658,-32.594 -72.658,-72.658 0,-40.066 32.594,-72.66 72.658,-72.66 40.066,0 72.66,32.594 72.66,72.66 0,40.064 -32.594,72.658 -72.66,72.658 z"
       inkscape:connector-curvature="0"
       style="fill:#4a555f" />
    <path
       id="path4648"
       d="m 510.266,67.338 c -30.772,0 -55.806,25.034 -55.806,55.806 0,30.772 25.034,55.808 55.806,55.808 30.772,0 55.808,-25.036 55.808,-55.808 0,-30.772 -25.036,-55.806 -55.808,-55.806 z"
       inkscape:connector-curvature="0"
       style="fill:#f58e6f" />
    <path
       id="path4650"
       d="m 510.266,295.28 c -48.028,0 -87.102,39.074 -87.102,87.102 0,48.028 39.074,87.102 87.102,87.102 48.028,0 87.104,-39.074 87.104,-87.102 0,-48.028 -39.076,-87.102 -87.104,-87.102 z m 0,159.76 c -40.064,0 -72.658,-32.594 -72.658,-72.658 0,-40.064 32.594,-72.658 72.658,-72.658 40.066,0 72.66,32.594 72.66,72.658 0,40.064 -32.594,72.658 -72.66,72.658 z"
       inkscape:connector-curvature="0"
       style="fill:#4a555f" />
    <path
       id="path4652"
       d="m 510.266,326.576 c -30.772,0 -55.806,25.036 -55.806,55.808 0,30.772 25.034,55.806 55.806,55.806 30.772,0 55.808,-25.034 55.808,-55.806 0,-30.772 -25.036,-55.808 -55.808,-55.808 z"
       inkscape:connector-curvature="0"
       style="fill:#f58e6f" />
    <path
       id="path4654"
       d="m 510.266,554.516 c -48.028,0 -87.102,39.074 -87.102,87.102 0,48.028 39.074,87.104 87.102,87.104 48.028,0 87.104,-39.076 87.104,-87.104 0,-48.028 -39.076,-87.102 -87.104,-87.102 z m 0,159.762 c -40.064,0 -72.658,-32.594 -72.658,-72.66 0,-40.064 32.594,-72.658 72.658,-72.658 40.066,0 72.66,32.594 72.66,72.658 0,40.066 -32.594,72.66 -72.66,72.66 z"
       inkscape:connector-curvature="0"
       style="fill:#4a555f" />
    <path
       id="path4656"
       d="m 510.266,585.812 c -30.772,0 -55.806,25.036 -55.806,55.808 0,30.772 25.034,55.806 55.806,55.806 30.772,0 55.808,-25.034 55.808,-55.806 0,-30.772 -25.036,-55.808 -55.808,-55.808 z"
       inkscape:connector-curvature="0"
       style="fill:#f58e6f" />
    <path
       id="path4658"
       d="m 510.266,813.754 c -48.028,0 -87.102,39.076 -87.102,87.104 0,48.028 39.074,87.102 87.102,87.102 48.028,0 87.104,-39.074 87.104,-87.102 0,-48.028 -39.076,-87.104 -87.104,-87.104 z m 0,159.76 c -40.064,0 -72.658,-32.594 -72.658,-72.658 0,-40.066 32.594,-72.66 72.658,-72.66 40.066,0 72.66,32.594 72.66,72.66 0,40.064 -32.594,72.658 -72.66,72.658 z"
       inkscape:connector-curvature="0"
       style="fill:#4a555f" />
    <path
       id="path4660"
       d="m 510.266,845.05 c -30.772,0 -55.806,25.034 -55.806,55.806 0,30.772 25.034,55.808 55.806,55.808 30.772,0 55.808,-25.036 55.808,-55.808 0,-30.772 -25.036,-55.806 -55.808,-55.806 z"
       inkscape:connector-curvature="0"
       style="fill:#f58e6f" />
    <path
       id="path4662"
       d="m 291.906,466.5 134.98,-74.902 7.01,12.628 -134.982,74.9 z m 0.012,91.906 7.006,-12.628 134.996,74.884 -7.006,12.63 z M 0,504.78 h 108.988 v 14.444 H 0 Z"
       inkscape:connector-curvature="0"
       style="fill:#4a555f" />
    <path
       id="path4664"
       d="m 75.014,463.83 -10.698,9.71 34.834,38.372 -34.742,36.886 10.514,9.904 43.902,-46.612 z m 830.162,-87.888 h 108.988 v 14.444 H 905.176 Z"
       inkscape:connector-curvature="0"
       style="fill:#4a555f" />
    <path
       id="path4666"
       d="m 980.19,334.994 -10.698,9.708 34.836,38.374 -34.744,36.886 10.514,9.902 43.902,-46.61 z M 905.176,635.18 h 108.988 v 14.444 H 905.176 Z"
       inkscape:connector-curvature="0"
       style="fill:#4a555f" />
    <path
       id="path4668"
       d="m 980.19,594.232 -10.698,9.71 34.836,38.37 -34.744,36.89 10.514,9.902 L 1024,642.49 Z M 567.638,586.778 722.034,432.382 732.246,442.594 577.85,596.99 Z"
       inkscape:connector-curvature="0"
       style="fill:#4a555f" />
    <path
       id="path4670"
       d="m 565.16,440.104 10.214,-10.212 154.212,154.212 -10.212,10.212 z m -323.654,-9.558 203.382,-258.778 11.354,8.924 -203.38,258.78 z m -0.008,161.832 11.354,-8.924 203.38,258.778 -11.354,8.924 z m 326.156,-414.384 10.21,-10.22 154.378,154.248 -10.21,10.218 z m -0.02,668.54 154.4,-154.226 10.208,10.22 -154.4,154.224 z"
       inkscape:connector-curvature="0"
       style="fill:#4a555f" />
  </g>
</svg>
