<svg class="svg-icon" style="width: 1em; height: 1em;vertical-align: middle;fill: currentColor;overflow: hidden;" viewBox="0 0 1024 1024" version="1.1" xmlns="http://www.w3.org/2000/svg"><path d="M912.48 778.74c-20.38 0-37.52 14.18-42.04 33.2h-85.62l-98.36-98.36c-0.24-0.24-0.52-0.42-0.78-0.64-0.24-0.2-0.46-0.4-0.72-0.58-0.4-0.26-0.82-0.48-1.24-0.68-0.16-0.08-0.3-0.18-0.46-0.24-0.52-0.22-1.06-0.38-1.6-0.5-0.1-0.02-0.18-0.06-0.26-0.08-0.7-0.14-1.4-0.2-2.08-0.2h-59.34v-78.22h111.76l44.28 44.28c0.48 0.48 1.02 0.92 1.6 1.32 0.04 0.02 0.1 0.04 0.14 0.06 0.5 0.32 1.04 0.62 1.6 0.84 0.08 0.04 0.16 0.06 0.26 0.08 1.1 0.42 2.28 0.68 3.52 0.68h25.74c4.52 19.02 21.64 33.22 42.04 33.22 23.82 0 43.22-19.4 43.22-43.24 0-23.82-19.4-43.22-43.22-43.22-20.4 0-37.54 14.2-42.06 33.24h-21.58l-44.32-44.34h-0.02c-0.46-0.46-0.96-0.88-1.52-1.24-0.22-0.16-0.48-0.26-0.72-0.4-0.34-0.18-0.64-0.38-1-0.52-0.3-0.12-0.64-0.2-0.96-0.3-0.3-0.08-0.58-0.2-0.9-0.26-0.6-0.12-1.22-0.18-1.84-0.18-0.04 0-0.08-0.02-0.12-0.02h-115.9v-90.46h87.04c4.52 19.04 21.66 33.24 42.06 33.24 23.82 0 43.22-19.38 43.22-43.22s-19.4-43.22-43.22-43.22c-20.4 0-37.52 14.18-42.04 33.2h-87.06v-90.42h115.9c0.66 0 1.32-0.08 1.98-0.2 0.2-0.04 0.38-0.12 0.56-0.18 0.44-0.1 0.88-0.22 1.3-0.4 0.26-0.1 0.48-0.24 0.7-0.36 0.36-0.18 0.7-0.34 1.02-0.56 0.4-0.26 0.74-0.58 1.08-0.88 0.14-0.12 0.3-0.22 0.44-0.36l44.32-44.32h21.58c4.54 19.04 21.66 33.24 42.06 33.24 23.82 0 43.22-19.4 43.22-43.24 0-23.82-19.4-43.22-43.22-43.22-20.4 0-37.52 14.2-42.04 33.22h-25.74c-0.3 0-0.58 0.06-0.88 0.1-0.36 0.02-0.72 0.04-1.06 0.1-0.4 0.08-0.78 0.22-1.18 0.34-0.22 0.08-0.46 0.14-0.68 0.22-0.44 0.18-0.82 0.42-1.22 0.64-0.16 0.1-0.34 0.18-0.52 0.28-0.56 0.38-1.08 0.8-1.56 1.28l-44.3 44.3h-111.76v-78.22h59.42c1.32 0 2.64-0.28 3.88-0.8l0.12-0.06c1.12-0.48 2.16-1.16 3.06-2.06l98.36-98.36h85.62c4.52 19.02 21.66 33.2 42.04 33.2 23.84 0 43.22-19.38 43.22-43.22 0-23.82-19.38-43.22-43.22-43.22-20.4 0-37.52 14.2-42.04 33.24h-89.72c-0.68-0.02-1.34 0.06-2.02 0.2-0.14 0.02-0.26 0.08-0.4 0.12-0.5 0.12-0.98 0.24-1.46 0.44-0.16 0.08-0.3 0.16-0.44 0.24-0.44 0.2-0.88 0.42-1.28 0.7-0.1 0.06-0.18 0.14-0.28 0.22-0.42 0.3-0.84 0.62-1.22 1l-98.36 98.36h-55.28V185c-0.06-84.72-69-153.62-153.74-153.62-84.2 0-152.78 68.06-153.68 152.06a153.692 153.692 0 0 0-113.32 5.34c-77.2 35-111.56 126.28-76.6 203.48 2.92 6.44 6.3 12.64 10.02 18.56-22.6 16.12-40.32 37.94-51.52 63.66-16.42 37.64-17.18 79.42-2.16 117.64 14.8 37.64 43.2 67.38 80.08 83.96-17.88 72.26 18.72 147.42 87.9 177.56a154.08 154.08 0 0 0 61.4 12.8c2.2 0 4.42-0.08 6.64-0.16 12.96 71.74 75.82 126.34 151.24 126.34 84.76 0 153.74-68.96 153.74-153.72 0-0.68-0.08-1.34-0.2-1.98 0.14-0.66 0.2-1.34 0.2-2.04v-104.22h55.28l98.36 98.36c0.42 0.42 0.88 0.78 1.36 1.12 0.04 0.04 0.08 0.08 0.12 0.1 0.46 0.3 0.92 0.54 1.4 0.76 0.1 0.04 0.22 0.12 0.32 0.16 0.54 0.24 1.08 0.38 1.64 0.52l0.24 0.06c0.66 0.14 1.32 0.22 1.98 0.22 0.02 0 0.04-0.02 0.06-0.02h89.7c4.52 19.04 21.64 33.24 42.04 33.24 23.84 0 43.22-19.4 43.22-43.22 0-23.84-19.38-43.22-43.22-43.22z m-61.56-132.28c12.8 0 23.22 10.42 23.22 23.22 0 12.82-10.42 23.24-23.22 23.24-12.82 0-23.24-10.42-23.24-23.24 0-12.8 10.42-23.22 23.24-23.22z m-101.84-157.68c12.8 0 23.22 10.42 23.22 23.22s-10.42 23.22-23.22 23.22c-12.82 0-23.22-10.42-23.22-23.22s10.4-23.22 23.22-23.22z m101.84-157.7c12.8 0 23.22 10.42 23.22 23.22 0 12.82-10.42 23.24-23.22 23.24-12.82 0-23.24-10.42-23.24-23.24 0-12.8 10.42-23.22 23.24-23.22z m61.56-152.26c12.8 0 23.22 10.42 23.22 23.22 0 12.82-10.42 23.22-23.22 23.22-12.8 0-23.22-10.4-23.22-23.22 0-12.8 10.42-23.22 23.22-23.22zM599.98 838.9c0 73.74-60 133.72-133.74 133.72s-133.72-59.98-133.74-133.72c0-73.74 60-133.74 133.74-133.74 5.52 0 10-4.48 10-10s-4.48-10-10-10c-84.76 0-153.74 68.96-153.74 153.74 0 2.5 0.08 4.98 0.2 7.46-19.7 0.66-39.5-3.1-57.76-11.06-62.62-27.28-94.6-96.98-74.36-162.1 1.48-4.76 3.22-9.44 5.18-13.94 14.26-32.74 40.42-57.98 73.66-71.04 33.26-13.06 69.6-12.4 102.34 1.86 5.06 2.2 10.96-0.1 13.16-5.16a10.004 10.004 0 0 0-5.16-13.18c-37.66-16.4-79.44-17.16-117.64-2.14-38.22 15.02-68.3 44.04-84.7 81.68-0.8 1.82-1.52 3.7-2.24 5.58-31.06-14.58-54.98-40.02-67.58-72.06-13.06-33.24-12.4-69.58 1.86-102.34 9.78-22.42 25.22-41.4 44.92-55.42 29.68 35.8 73.68 55.46 118.64 55.46a152.74 152.74 0 0 0 63.06-13.6 10 10 0 0 0 5-13.24 10.01 10.01 0 0 0-13.24-4.98c-57.5 26.02-126.12 7.94-163.2-43.02a132.794 132.794 0 0 1-13.78-23.64c-30.42-67.16-0.52-146.58 66.64-177.02 33.8-15.3 72.24-15.82 106.36-1.68 4.36 33.4 19.46 64.28 43.68 88.5 29.02 29.04 67.64 45.02 108.7 45.02 5.52 0 10-4.48 10-10s-4.48-10-10-10c-35.72 0-69.3-13.9-94.56-39.18-25.26-25.26-39.18-58.84-39.16-94.56 0-73.74 59.98-133.72 133.72-133.72s133.74 59.98 133.74 133.72v108.24h-50.24c-5.52 0-10 4.46-10 10 0 5.52 4.48 10 10 10h50.24v78.22h-84.44c-5.52 0-10 4.48-10 10s4.48 10 10 10h84.44v90.42H472.8c-5.52 0-10 4.48-10 10s4.48 10 10 10h127.18v90.46h-84.44c-5.52 0-10 4.48-10 10s4.48 10 10 10h84.44v78.22h-50.24c-5.52 0-10 4.48-10 10s4.48 10 10 10h50.24v104.22c0 0.68 0.08 1.34 0.2 1.98-0.14 0.66-0.2 1.34-0.2 2.04z m312.5 6.28c-12.8 0-23.22-10.42-23.22-23.22 0-12.82 10.42-23.22 23.22-23.22 12.8 0 23.22 10.4 23.22 23.22 0 12.8-10.42 23.22-23.22 23.22z" fill="#23130D" /><path d="M935.7 821.96c0 12.8-10.42 23.22-23.22 23.22-12.8 0-23.22-10.42-23.22-23.22 0-12.82 10.42-23.22 23.22-23.22 12.8 0 23.22 10.4 23.22 23.22zM874.14 669.68c0 12.82-10.42 23.24-23.22 23.24-12.82 0-23.24-10.42-23.24-23.24 0-12.8 10.42-23.22 23.24-23.22 12.8 0 23.22 10.42 23.22 23.22zM772.3 512c0 12.8-10.42 23.22-23.22 23.22-12.82 0-23.22-10.42-23.22-23.22s10.4-23.22 23.22-23.22c12.8 0 23.22 10.42 23.22 23.22zM935.7 202.04c0 2.6-0.42 5.1-1.22 7.42-0.74 2.18-1.78 4.22-3.1 6.06-0.8 1.1-1.68 2.14-2.66 3.08-0.92 0.92-1.92 1.76-3 2.5-0.56 0.4-1.12 0.76-1.72 1.08-1.56 0.92-3.26 1.64-5.02 2.14-2.06 0.62-4.24 0.94-6.5 0.94-12.8 0-23.22-10.4-23.22-23.22 0-2.26 0.32-4.44 0.92-6.5 0.52-1.76 1.24-3.46 2.16-5.02 0.32-0.58 0.68-1.16 1.08-1.7 0.74-1.08 1.58-2.08 2.5-3.02 0.94-0.98 1.98-1.86 3.1-2.66 1.84-1.32 3.88-2.38 6.06-3.1 2.32-0.8 4.82-1.22 7.4-1.22 12.8 0 23.22 10.42 23.22 23.22zM874.14 354.3c0 12.82-10.42 23.24-23.22 23.24-12.82 0-23.24-10.42-23.24-23.24 0-12.8 10.42-23.22 23.24-23.22 12.8 0 23.22 10.42 23.22 23.22z" fill="#F9C139" /><path d="M600.18 836.86c-0.14 0.66-0.2 1.34-0.2 2.04 0 73.74-60 133.72-133.74 133.72s-133.72-59.98-133.74-133.72c0-73.74 60-133.74 133.74-133.74 5.52 0 10-4.48 10-10s-4.48-10-10-10c-84.76 0-153.74 68.96-153.74 153.74 0 2.5 0.08 4.98 0.2 7.46-19.7 0.66-39.5-3.1-57.76-11.06-62.62-27.28-94.6-96.98-74.36-162.1 1.48-4.76 3.22-9.44 5.18-13.94 14.26-32.74 40.42-57.98 73.66-71.04 33.26-13.06 69.6-12.4 102.34 1.86 5.06 2.2 10.96-0.1 13.16-5.16a10.004 10.004 0 0 0-5.16-13.18c-37.66-16.4-79.44-17.16-117.64-2.14-38.22 15.02-68.3 44.04-84.7 81.68-0.8 1.82-1.52 3.7-2.24 5.58-31.06-14.58-54.98-40.02-67.58-72.06-13.06-33.24-12.4-69.58 1.86-102.34 9.78-22.42 25.22-41.4 44.92-55.42 29.68 35.8 73.68 55.46 118.64 55.46a152.74 152.74 0 0 0 63.06-13.6 10 10 0 0 0 5-13.24 10.01 10.01 0 0 0-13.24-4.98c-57.5 26.02-126.12 7.94-163.2-43.02a132.794 132.794 0 0 1-13.78-23.64c-30.42-67.16-0.52-146.58 66.64-177.02 33.8-15.3 72.24-15.82 106.36-1.68 4.36 33.4 19.46 64.28 43.68 88.5 29.02 29.04 67.64 45.02 108.7 45.02 5.52 0 10-4.48 10-10s-4.48-10-10-10c-35.72 0-69.3-13.9-94.56-39.18-25.26-25.26-39.18-58.84-39.16-94.56 0-73.74 59.98-133.72 133.72-133.72s133.74 59.98 133.74 133.72v108.24h-50.24c-5.52 0-10 4.46-10 10 0 5.52 4.48 10 10 10h50.24v78.22h-84.44c-5.52 0-10 4.48-10 10s4.48 10 10 10h84.44v90.42H472.8c-5.52 0-10 4.48-10 10s4.48 10 10 10h127.18v90.46h-84.44c-5.52 0-10 4.48-10 10s4.48 10 10 10h84.44v78.22h-50.24c-5.52 0-10 4.48-10 10s4.48 10 10 10h50.24v104.22c0 0.68 0.08 1.34 0.2 1.98z" fill="#EC7063" /><path d="M466.24 61.38c68.23 0 123.74 55.5 123.74 123.72v98.24h-40.24c-11.028 0-20 8.972-20 20s8.972 20 20 20h40.24v58.22h-74.44c-11.028 0-20 8.972-20 20s8.972 20 20 20h74.44v70.42H472.8c-11.028 0-20 8.972-20 20s8.972 20 20 20h117.18v70.46h-74.44c-11.028 0-20 8.972-20 20s8.972 20 20 20h74.44v58.22h-40.24c-11.028 0-20 8.972-20 20s8.972 20 20 20h40.24v94.22c0 0.648 0.034 1.298 0.1 1.962-0.066 0.674-0.1 1.36-0.1 2.058 0 68.22-55.51 123.72-123.74 123.72-68.212 0-123.722-55.502-123.74-123.72 0-68.23 55.51-123.74 123.74-123.74 11.028 0 20-8.972 20-20s-8.972-20-20-20c-89.416 0-162.322 72.046-163.72 161.136a124.638 124.638 0 0 1-43.586-10.164c-57.95-25.246-87.53-89.716-68.804-149.962a126.652 126.652 0 0 1 4.8-12.916c13.198-30.302 37.402-53.644 68.148-65.724 14.608-5.736 29.854-8.646 45.312-8.646 16.976 0 33.59 3.488 49.386 10.368a19.898 19.898 0 0 0 7.982 1.664 19.976 19.976 0 0 0 18.33-11.99c4.412-10.096-0.212-21.912-10.33-26.352-20.89-9.096-42.882-13.71-65.37-13.71-20.47 0-40.632 3.846-59.922 11.43-39.244 15.422-70.436 44.702-88.27 82.702-24.234-13.946-42.958-35.588-53.286-61.85-12.084-30.754-11.472-64.382 1.718-94.684a123.672 123.672 0 0 1 34.426-45.796c30.862 33.06 74.056 51.838 119.968 51.838 23.34 0 45.944-4.876 67.182-14.488 10.054-4.548 14.536-16.424 9.984-26.486a20.058 20.058 0 0 0-18.224-11.738 19.88 19.88 0 0 0-8.244 1.782c-16.028 7.252-33.1 10.93-50.744 10.93-39.66 0-77.136-18.962-100.262-50.744a122.834 122.834 0 0 1-12.742-21.862c-28.148-62.144-0.488-135.618 61.654-163.784a122.788 122.788 0 0 1 50.966-11.006 123.14 123.14 0 0 1 42.236 7.43c5.616 33.588 21.32 64.032 45.642 88.354 30.9 30.922 72.016 47.952 115.774 47.952 11.028 0 20-8.972 20-20s-8.972-20-20-20c-33.06 0-64.13-12.874-87.488-36.25-23.382-23.382-36.25-54.452-36.232-87.49C342.52 116.88 398.02 61.38 466.24 61.38m0-10c-73.74 0-133.72 59.98-133.72 133.72-0.02 35.72 13.9 69.3 39.16 94.56 25.26 25.28 58.84 39.18 94.56 39.18 5.52 0 10 4.48 10 10s-4.48 10-10 10c-41.06 0-79.68-15.98-108.7-45.02-24.22-24.22-39.32-55.1-43.68-88.5a133.88 133.88 0 0 0-51.27-10.216 133.516 133.516 0 0 0-55.09 11.896c-67.16 30.44-97.06 109.86-66.64 177.02 3.8 8.4 8.44 16.34 13.78 23.64 25.698 35.318 66.536 54.84 108.332 54.84a132.93 132.93 0 0 0 54.868-11.82 10.016 10.016 0 0 1 13.24 4.98 10 10 0 0 1-5 13.24 152.74 152.74 0 0 1-63.06 13.6c-44.96 0-88.96-19.66-118.64-55.46-19.7 14.02-35.14 33-44.92 55.42-14.26 32.76-14.92 69.1-1.86 102.34 12.6 32.04 36.52 57.48 67.58 72.06 0.72-1.88 1.44-3.76 2.24-5.58 16.4-37.64 46.48-66.66 84.7-81.68 18.218-7.164 37.252-10.738 56.264-10.738 20.852 0 41.678 4.3 61.376 12.878a10.004 10.004 0 0 1 5.16 13.18 9.984 9.984 0 0 1-9.166 5.994 9.994 9.994 0 0 1-3.994-0.834c-17.126-7.458-35.234-11.196-53.374-11.196-16.54 0-33.104 3.108-48.966 9.336-33.24 13.06-59.4 38.3-73.66 71.04-1.96 4.5-3.7 9.18-5.18 13.94-20.24 65.12 11.74 134.82 74.36 162.1a133.67 133.67 0 0 0 57.76 11.06c-0.12-2.48-0.2-4.96-0.2-7.46 0-84.78 68.98-153.74 153.74-153.74 5.52 0 10 4.48 10 10s-4.48 10-10 10c-73.74 0-133.74 60-133.74 133.74 0.02 73.74 60 133.72 133.74 133.72s133.74-59.98 133.74-133.72c0-0.7 0.06-1.38 0.2-2.04-0.12-0.64-0.2-1.3-0.2-1.98v-104.22h-50.24c-5.52 0-10-4.48-10-10s4.48-10 10-10h50.24v-78.22h-84.44c-5.52 0-10-4.48-10-10s4.48-10 10-10h84.44v-90.46H472.8c-5.52 0-10-4.48-10-10s4.48-10 10-10h127.18v-90.42h-84.44c-5.52 0-10-4.48-10-10s4.48-10 10-10h84.44v-78.22h-50.24c-5.52 0-10-4.48-10-10 0-5.54 4.48-10 10-10h50.24V185.1c0-73.74-60-133.72-133.74-133.72z" opacity=".2" /><path d="M924 222.18c-1.56 0.92-3.26 1.64-5.02 2.14l-28.8-28.78c0.52-1.76 1.24-3.46 2.16-5.02L924 222.18zM928.72 218.6c-0.92 0.92-1.92 1.76-3 2.5l-32.3-32.28c0.74-1.08 1.58-2.08 2.5-3.02l32.8 32.8zM934.48 209.46c-0.74 2.18-1.78 4.22-3.1 6.06l-32.36-32.38c1.84-1.32 3.88-2.38 6.06-3.1l29.4 29.42z" fill="#FFFFFF" opacity=".4" /><path d="M862.58 374.31c-1.56 0.92-3.26 1.64-5.02 2.14l-28.8-28.78c0.52-1.76 1.24-3.46 2.16-5.02l31.66 31.66zM867.3 370.73c-0.92 0.92-1.92 1.76-3 2.5L832 340.95c0.74-1.08 1.58-2.08 2.5-3.02l32.8 32.8zM873.06 361.59c-0.74 2.18-1.78 4.22-3.1 6.06l-32.36-32.38c1.84-1.32 3.88-2.38 6.06-3.1l29.4 29.42z" fill="#FFFFFF" opacity=".4" /><path d="M760.75 532c-1.56 0.92-3.26 1.64-5.02 2.14l-28.8-28.78c0.52-1.76 1.24-3.46 2.16-5.02l31.66 31.66zM765.47 528.42c-0.92 0.92-1.92 1.76-3 2.5l-32.3-32.28c0.74-1.08 1.58-2.08 2.5-3.02l32.8 32.8zM771.23 519.28c-0.74 2.18-1.78 4.22-3.1 6.06l-32.36-32.38c1.84-1.32 3.88-2.38 6.06-3.1l29.4 29.42z" fill="#FFFFFF" opacity=".4" /><path d="M862.58 689.69c-1.56 0.92-3.26 1.64-5.02 2.14l-28.8-28.78c0.52-1.76 1.24-3.46 2.16-5.02l31.66 31.66zM867.3 686.11c-0.92 0.92-1.92 1.76-3 2.5L832 656.33c0.74-1.08 1.58-2.08 2.5-3.02l32.8 32.8zM873.06 676.97c-0.74 2.18-1.78 4.22-3.1 6.06l-32.36-32.38c1.84-1.32 3.88-2.38 6.06-3.1l29.4 29.42z" fill="#FFFFFF" opacity=".4" /><path d="M924.15 841.96c-1.56 0.92-3.26 1.64-5.02 2.14l-28.8-28.78c0.52-1.76 1.24-3.46 2.16-5.02l31.66 31.66zM928.87 838.38c-0.92 0.92-1.92 1.76-3 2.5l-32.3-32.28c0.74-1.08 1.58-2.08 2.5-3.02l32.8 32.8zM934.63 829.24c-0.74 2.18-1.78 4.22-3.1 6.06l-32.36-32.38c1.84-1.32 3.88-2.38 6.06-3.1l29.4 29.42z" fill="#FFFFFF" opacity=".4" /></svg>